<svg xmlns="http://www.w3.org/2000/svg" width="15" height="21.5" viewBox="0 0 15 21.5">
  <path id="Path_31" data-name="Path 31" d="M12,23a7.5,7.5,0,0,0,7.5-7.5,7.546,7.546,0,0,0-.5-2.47q-2.5,2.47-3.8,2.47c4-7,1.8-10-4.2-14,.5,5-2.8,7.274-4.138,8.537A7.5,7.5,0,0,0,12,23Zm.709-17.765c3.242,2.75,3.257,4.887.754,9.274A2,2,0,0,0,15.2,17.5a4.458,4.458,0,0,0,2.119-.595,5.5,5.5,0,1,1-9.087-5.412c.126-.119.765-.685.793-.71.424-.382.773-.717,1.118-1.087A10.478,10.478,0,0,0,12.709,5.235Z" transform="translate(-4.5 -1.5)" fill="#e24497"/>
</svg>
