<svg xmlns="http://www.w3.org/2000/svg" width="12.624" height="15.946" viewBox="0 0 12.624 15.946">
  <g id="User" transform="translate(-4.5 -2.5)">
    <g id="Group_77" data-name="Group 77" transform="translate(5 3)">
      <path id="Path_54" data-name="Path 54" d="M5,18.244a4.038,4.038,0,0,1,3.325-4.025l.173-.029a14.227,14.227,0,0,1,4.63,0l.173.029a4.038,4.038,0,0,1,3.325,4.025,1.544,1.544,0,0,1-1.518,1.568H6.518A1.544,1.544,0,0,1,5,18.244Z" transform="translate(-5 -4.867)" fill="none" stroke="#e24497" stroke-width="1"/>
      <path id="Path_55" data-name="Path 55" d="M14.7,6.27a3.331,3.331,0,0,1-3.39,3.269,3.332,3.332,0,0,1-3.39-3.27A3.332,3.332,0,0,1,11.307,3,3.332,3.332,0,0,1,14.7,6.27Z" transform="translate(-5.495 -3)" fill="none" stroke="#e24497" stroke-width="1"/>
    </g>
  </g>
</svg>
